<?xml version="1.0" standalone="no"?>
<!DOCTYPE svg PUBLIC "-//W3C//DTD SVG 20010904//EN"
 "http://www.w3.org/TR/2001/REC-SVG-20010904/DTD/svg10.dtd">
<svg version="1.0" xmlns="http://www.w3.org/2000/svg"
 width="78.000000pt" height="75.000000pt" viewBox="0 0 78.000000 75.000000"
 preserveAspectRatio="xMidYMid meet">

<g transform="translate(0.000000,75.000000) scale(0.100000,-0.100000)"
fill="#000000" stroke="none">
<path d="M44 726 c-5 -14 30 -54 157 -182 l164 -164 -178 -178 c-141 -141
-175 -180 -165 -190 10 -10 49 24 190 165 l178 178 178 -178 c141 -141 180
-175 190 -165 10 10 -24 49 -165 190 l-178 178 164 164 c127 128 162 168 157
182 -6 15 -39 -14 -176 -151 l-170 -170 -170 170 c-137 137 -170 166 -176 151z"/>
</g>
</svg>
